<?xml version="1.0" encoding="utf-8"?>
<!-- Generator: Adobe Illustrator 16.0.0, SVG Export Plug-In . SVG Version: 6.00 Build 0)  -->
<!DOCTYPE svg PUBLIC "-//W3C//DTD SVG 1.1//EN" "http://www.w3.org/Graphics/SVG/1.1/DTD/svg11.dtd">
<svg version="1.1" id="Layer_1" xmlns="http://www.w3.org/2000/svg" xmlns:xlink="http://www.w3.org/1999/xlink" x="0px" y="0px"
	 width="458px" height="456px" viewBox="0 0 458 456" enable-background="new 0 0 458 456" xml:space="preserve">
<g>
	<g>
		<path fill="#010101" d="M210.52,4.8c27.6-2.28,55.62,0.57,82.18,8.43c35.38,10.46,68.04,29.89,94.17,55.94
			c37.68,37.21,61.45,88.18,65.37,141.02c3.64,44.64-6.45,90.34-28.9,129.13c-19.65,34.38-48.65,63.35-83.01,83.03
			c-35.97,20.75-77.86,31.06-119.35,29.43c-54.61-1.6-108.15-24.45-147.33-62.48c-26.08-25.03-45.92-56.49-57.29-90.79
			C-3.57,238.95,3.03,171.04,34.63,116.69c21.73-38.03,54.9-69.42,94.1-88.98C154.16,14.87,182.12,7.09,210.52,4.8z M211.56,36.81
			c-38.91,3.36-76.6,19.1-106.34,44.42c-28.77,24.19-50.27,56.99-60.63,93.14c-9.14,31.62-10,65.57-2.52,97.61
			c7.44,32.31,23.68,62.46,46.25,86.71c20.47,22,46.09,39.24,74.34,49.56c24.33,8.94,50.5,12.82,76.38,11.44
			c39.83-1.88,78.91-16.71,109.92-41.77c30.86-24.65,53.94-59,64.65-97.05c14.58-50.65,7.31-107.27-20.29-152.26
			c-19.84-32.8-49.7-59.46-84.59-75.35C278.51,39.41,244.64,33.82,211.56,36.81z"/>
	</g>
	<path fill="#010101" d="M213.02,68c7.98,0,15.96,0,23.94,0c2.79,53.36,5.3,106.73,8.08,160.09c26.73,31.95,53.31,64.01,80.04,95.96
		c-5.34,5.35-10.68,10.7-16.04,16.03c-37.3-32.11-74.77-64.02-112.05-96.15C202.4,185.29,207.63,126.64,213.02,68z"/>
</g>
</svg>
