<?xml version="1.0" encoding="utf-8"?>
<!-- Generator: Adobe Illustrator 23.0.6, SVG Export Plug-In . SVG Version: 6.00 Build 0)  -->
<svg version="1.1" id="Layer_1" xmlns="http://www.w3.org/2000/svg" xmlns:xlink="http://www.w3.org/1999/xlink" x="0px" y="0px"
	 viewBox="0 0 402 48.46" style="enable-background:new 0 0 402 48.46;" xml:space="preserve">
<style type="text/css">
	.st0{fill:#FFFFFF;}
</style>
<g>
	<path class="st0" d="M394.76,48.13H402V0.4h-7.24v20.44h-18.9V0.4h-7.24v47.73h7.24V27.28h18.9V48.13z M323.14,41.96
		c2.5,2.19,5.28,3.82,8.35,4.89c3.06,1.07,6.36,1.61,9.89,1.61c5.14,0,9.22-1.2,12.23-3.61c3.02-2.41,4.52-5.8,4.52-10.17
		c0-3.26-1.06-6.22-3.18-8.9c-2.12-2.68-5.42-4.28-9.89-4.82c-1.12-0.13-2.13-0.27-3.05-0.4c-0.92-0.13-1.69-0.24-2.31-0.33
		c-2.41-0.36-4.15-1.13-5.19-2.31c-1.05-1.18-1.58-2.44-1.58-3.78c0-2.3,0.78-4.03,2.35-5.18c1.56-1.15,3.44-1.73,5.63-1.73
		c2.1,0,4.16,0.34,6.17,1.02c2.01,0.68,3.89,1.59,5.63,2.73l4.02-6c-2.19-1.44-4.58-2.63-7.17-3.57C346.96,0.47,344.19,0,341.24,0
		c-4.92,0-8.74,1.3-11.46,3.91c-2.73,2.61-4.09,5.97-4.09,10.1c0,3.43,1.08,6.38,3.25,8.83c2.17,2.45,5.31,3.97,9.42,4.55
		c0.8,0.09,1.53,0.19,2.18,0.3c0.65,0.11,1.28,0.21,1.91,0.3c0.36,0.05,0.71,0.09,1.07,0.13c0.36,0.05,0.74,0.09,1.14,0.13
		c2.14,0.27,3.72,0.98,4.73,2.14c1.01,1.16,1.51,2.59,1.51,4.28c0,1.96-0.84,3.56-2.51,4.78c-1.68,1.23-3.99,1.84-6.94,1.84
		c-2.55,0-4.98-0.44-7.31-1.31c-2.32-0.87-4.4-2.02-6.23-3.45L323.14,41.96z M289.19,31.04l6.9-20.85h0.13l6.9,20.85H289.19z
		 M308.9,48.13h7.64L299.18,0.4h-6.03l-17.36,47.73h7.64l3.69-10.66h18.1L308.9,48.13z M253.22,48.13h7.24V6.84h13.07V0.4h-33.38
		v6.43h13.07V48.13z M183.85,31.04l6.9-20.85h0.13l6.9,20.85H183.85z M203.56,48.13h7.64L193.84,0.4h-6.03l-17.36,47.73h7.64
		l3.69-10.66h18.1L203.56,48.13z M151.74,48.13h7.24V0.4h-7.24V48.13z M111.72,6.84h11.33c1.25,0,2.28,0.12,3.08,0.37
		c0.8,0.25,1.54,0.61,2.21,1.11c0.76,0.54,1.35,1.26,1.78,2.18c0.42,0.92,0.64,2,0.64,3.25c0,2.01-0.67,3.78-2.01,5.3
		c-1.34,1.52-3.37,2.28-6.1,2.28h-10.93V6.84z M104.49,48.13h7.24V27.75h9.25l9.85,20.38h8.58l-11.06-21.18
		c2.9-1.03,5.17-2.71,6.8-5.06c1.63-2.35,2.45-5.06,2.45-8.14c0-2.14-0.46-4.1-1.37-5.87c-0.92-1.76-2.04-3.21-3.39-4.32
		c-1.25-1.12-2.68-1.92-4.29-2.41c-1.61-0.49-3.42-0.74-5.43-0.74h-18.63V48.13z M65.62,31.04l6.9-20.85h0.13l6.9,20.85H65.62z
		 M85.33,48.13h7.64L75.61,0.4h-6.03L52.22,48.13h7.64l3.69-10.66h18.1L85.33,48.13z M0,48.13h7.24V18.37h0.13l9.99,22.92h6.03
		l9.99-22.92h0.13v29.76h7.24V0.4h-6.84l-13.41,31.1L6.84,0.4H0V48.13z"/>
</g>
</svg>
